PathFileType	4	(X/Y/Z)	/Users/itak/Documents/Research/Walk-IL/dataset/trc/00134_00007.trc
DataRate	CameraRate	NumFrames	NumMarkers	Units	OrigDataRate	OrigDataStartFrame	OrigNumFrames
100.000000	100.000000	4	53	mm	100.000000	278	742
Frame#	Time	RPSI			LPSI			L3			STRN			T10			C7			CLAV			RBAK			LBAK			LSHO			LUPA			LAEL			LAOL			LWTS			LWPS			LFRA			LIFD			LHPS			LHTS			RSHO			RUPA			RAEL			RAOL			RWTS			RWPS			RFRA			RIFD			RHTS			RHPS			RBHD			LFHD			RFHD			LBHD			LHIP			RHIP			RASI			LASI			LKNE			LTHI			LANK			LTIP			LTOE			LMT1			LMT5			LHEE			RKNE			RTHI			RANK			RTIP			RTOE			RMT1			RMT5			RHEE			
		X1	Y1	Z1	X2	Y2	Z2	X3	Y3	Z3	X4	Y4	Z4	X5	Y5	Z5	X6	Y6	Z6	X7	Y7	Z7	X8	Y8	Z8	X9	Y9	Z9	X10	Y10	Z10	X11	Y11	Z11	X12	Y12	Z12	X13	Y13	Z13	X14	Y14	Z14	X15	Y15	Z15	X16	Y16	Z16	X17	Y17	Z17	X18	Y18	Z18	X19	Y19	Z19	X20	Y20	Z20	X21	Y21	Z21	X22	Y22	Z22	X23	Y23	Z23	X24	Y24	Z24	X25	Y25	Z25	X26	Y26	Z26	X27	Y27	Z27	X28	Y28	Z28	X29	Y29	Z29	X30	Y30	Z30	X31	Y31	Z31	X32	Y32	Z32	X33	Y33	Z33	X34	Y34	Z34	X35	Y35	Z35	X36	Y36	Z36	X37	Y37	Z37	X38	Y38	Z38	X39	Y39	Z39	X40	Y40	Z40	X41	Y41	Z41	X42	Y42	Z42	X43	Y43	Z43	X44	Y44	Z44	X45	Y45	Z45	X46	Y46	Z46	X47	Y47	Z47	X48	Y48	Z48	X49	Y49	Z49	X50	Y50	Z50	X51	Y51	Z51	X52	Y52	Z52	X53	Y53	Z53	

279	2.78	-625.7843017578125	1103.447998046875	155.8462982177734	-756.5929565429688	1107.107543945312	118.0624847412109	-695.15283203125	1141.014770507812	143.0824737548828	-619.160400390625	1341.055053710938	-63.62370681762695	-705.1122436523438	1292.965942382812	177.0769500732422	-693.6085205078125	1586.134399414062	145.0548248291016	-625.5296020507812	1475.550903320312	-26.41621971130371	-641.404296875	1394.76708984375	218.7302856445312	-791.64599609375	1571.912963867188	112.277587890625	-824.5078125	1562.187744140625	5.534971714019775	-902.1511840820312	1433.113403320312	-4.148635387420654	-931.3902587890625	1216.885498046875	-30.54153823852539	-897.9141235351562	1198.878173828125	49.12781524658203	-877.0415649414062	959.0267333984375	-123.7831573486328	-927.287841796875	933.5340576171875	-54.96318435668945	-937.5640258789062	1101.763305664062	-51.74605178833008	-856.08447265625	766.8658447265625	-130.8842163085938	-921.4955444335938	858.423828125	-84.73623657226562	-886.2423706054688	869.528076171875	-144.3020477294922	-506.0086059570312	1553.113891601562	157.2068634033203	-459.2095947265625	1476.527709960938	196.9179534912109	-466.33251953125	1183.468872070312	218.173583984375	-555.9762573242188	1189.713989257812	185.3641204833984	-432.027587890625	935.28662109375	87.80177307128906	-438.8506774902344	920.4131469726562	169.1538238525391	-447.5070495605469	1108.8447265625	204.7502593994141	-455.2860412597656	743.1107788085938	59.82435607910156	-422.4590759277344	825.533447265625	65.23047637939453	-427.2344665527344	818.8125610351562	138.9273071289062	-612.5911254882812	1750.94580078125	145.4649047851562	-596.3079223632812	1820.590209960938	-64.87506103515625	-499.4657897949219	1806.155395507812	20.61282730102539	-717.793212890625	1770.085815429688	65.46268463134766	-837.3990478515625	1023.858215332031	-0.6633908152580261	-482.7254943847656	1003.967163085938	61.37030029296875	-508.9587097167969	1079.513427734375	-27.09588432312012	-764.8670654296875	1087.749267578125	-95.0040283203125	-837.50439453125	515.9439086914062	-103.6801834106445	-854.6065673828125	669.02294921875	-65.71755218505859	-995.424072265625	218.3651123046875	320.4570617675781	-944.0652465820312	385.5433654785156	114.3585662841797	-911.2722778320312	34.90085220336914	217.4576873779297	-887.2073974609375	100.6145324707031	260.9284057617188	-1001.397094726562	106.6697387695312	267.0908508300781	-944.8859252929688	281.5332946777344	361.92333984375	-574.583984375	524.4033813476562	-42.64133453369141	-502.6283264160156	793.0960083007812	6.318881988525391	-707.5549926757812	28.26297378540039	-21.10321998596191	-592.3482666015625	387.6875305175781	-34.56298065185547	-635.0668334960938	41.4382438659668	-248.0320281982422	-703.3578491210938	33.57086944580078	-217.4148254394531	-621.7904663085938	43.79038619995117	-127.7951278686523	-776.935546875	30.22953987121582	3.328629493713379	
280	2.79	-623.5289916992188	1104.014526367188	147.7391967773438	-753.9448852539062	1107.608032226562	108.1233749389648	-692.6077270507812	1141.5703125	134.1414489746094	-614.2328491210938	1341.961669921875	-71.73516082763672	-702.5689697265625	1293.623291015625	167.8363800048828	-690.5765991210938	1586.923583984375	136.1661834716797	-621.2359008789062	1476.5029296875	-34.767333984375	-638.782958984375	1395.587768554688	210.3276977539062	-788.432373046875	1572.61669921875	102.6782608032227	-820.617431640625	1562.891845703125	-4.232273101806641	-898.1124267578125	1433.6865234375	-14.00610160827637	-926.9817504882812	1217.349365234375	-39.66432952880859	-893.7183227539062	1199.749389648438	40.24292373657227	-872.3821411132812	958.84765625	-131.1041564941406	-922.8639526367188	933.883056640625	-62.31696701049805	-933.089599609375	1102.13134765625	-60.27243804931641	-851.81298828125	766.5968627929688	-136.8876953125	-917.1434326171875	858.5767822265625	-91.59571838378906	-881.73681640625	869.2451782226562	-151.0719604492188	-503.130126953125	1554.190551757812	149.7192687988281	-456.3649291992188	1477.619506835938	189.5849761962891	-462.1841735839844	1184.2978515625	209.4561767578125	-551.7708129882812	1190.319580078125	176.4221801757812	-425.7340087890625	937.6333618164062	76.85977935791016	-432.866455078125	921.851806640625	157.9998626708984	-442.8714599609375	1109.8583984375	195.4665374755859	-447.4441223144531	745.6019287109375	46.78653335571289	-415.2125854492188	828.2036743164062	53.22206497192383	-420.3585510253906	820.6934204101562	126.7903747558594	-609.4833374023438	1751.836181640625	136.9389953613281	-591.875244140625	1821.303588867188	-73.30943298339844	-495.56640625	1806.947998046875	12.78022193908691	-714.14111328125	1770.929809570312	56.23415756225586	-832.5997924804688	1025.007934570312	-12.28125858306885	-479.1760864257812	1004.349182128906	55.5662841796875	-503.8337097167969	1080.215576171875	-33.37971496582031	-758.789794921875	1088.728759765625	-105.121452331543	-827.8031616210938	518.3108520507812	-124.4449996948242	-847.0252075195312	670.6524047851562	-83.86659240722656	-993.005859375	216.4073791503906	292.8731689453125	-937.847412109375	385.9436340332031	90.53534698486328	-909.6708984375	35.98369979858398	183.7948913574219	-885.2050170898438	99.44297027587891	230.3455505371094	-999.580322265625	107.375129699707	234.4877166748047	-942.4857177734375	277.0331420898438	338.010009765625	-572.6513061523438	523.7974853515625	-44.47662353515625	-499.4856872558594	793.1175537109375	1.749389886856079	-707.5548706054688	28.30767250061035	-21.10097885131836	-591.0518188476562	387.3227233886719	-35.67305374145508	-635.006591796875	41.37850570678711	-248.0907135009766	-703.2638549804688	33.66794586181641	-217.4172210693359	-621.8883666992188	43.50096130371094	-127.6045074462891	-776.9857788085938	30.33336067199707	3.31597638130188	
281	2.8	-621.3167114257812	1104.538818359375	139.6830291748047	-751.2957763671875	1108.086059570312	98.24325561523438	-690.0615234375	1142.155517578125	125.2596893310547	-609.2142944335938	1342.830688476562	-79.711181640625	-700.0519409179688	1294.2802734375	158.7112274169922	-687.56494140625	1587.684692382812	127.2889862060547	-616.8781127929688	1477.417358398438	-43.01498031616211	-636.2384033203125	1396.382690429688	202.0288391113281	-785.2294311523438	1573.329956054688	93.04080963134766	-816.648193359375	1563.59375	-14.02891254425049	-894.0354614257812	1434.285888671875	-23.88578224182129	-922.62451171875	1217.836059570312	-48.67335891723633	-889.5094604492188	1200.658935546875	31.47093391418457	-867.7687377929688	958.7672119140625	-138.4803009033203	-918.4061279296875	934.2533569335938	-69.68283843994141	-928.6773681640625	1102.523071289062	-68.71298217773438	-847.4549560546875	766.465087890625	-143.0968017578125	-912.7258911132812	858.7764892578125	-98.52346038818359	-877.246826171875	869.0726928710938	-157.9230804443359	-500.2940368652344	1555.249267578125	142.3879699707031	-453.593505859375	1478.699340820312	182.4492340087891	-458.1298828125	1185.121215820312	201.0007781982422	-547.6463012695312	1190.931274414062	167.6762084960938	-419.3744506835938	940.0681762695312	66.13401031494141	-426.9039916992188	923.328369140625	147.0264587402344	-438.3132629394531	1110.868530273438	186.4463806152344	-439.4519348144531	748.2407836914062	33.78701782226562	-407.8420715332031	831.0164184570312	41.37442779541016	-413.4586791992188	822.650146484375	114.7844085693359	-606.3619995117188	1752.734008789062	128.469482421875	-587.4216918945312	1821.962524414062	-81.6971435546875	-491.6539001464844	1807.702392578125	4.994107246398926	-710.4764404296875	1771.766235351562	47.06170654296875	-827.6801147460938	1026.115234375	-23.89904022216797	-475.6738891601562	1004.65673828125	49.9263916015625	-498.7274169921875	1080.830810546875	-39.4676628112793	-752.6141357421875	1089.717407226562	-115.1332244873047	-817.8646850585938	520.9745483398438	-144.6008453369141	-839.2385864257812	672.4801025390625	-101.5636291503906	-990.0732421875	213.3293151855469	264.5597534179688	-931.2326049804688	385.960693359375	66.840576171875	-907.3775634765625	36.71984100341797	148.793701171875	-882.5900268554688	97.50914001464844	198.6240844726562	-997.0586547851562	107.3933029174805	200.8916320800781	-939.65087890625	271.1326293945312	313.4451599121094	-570.7461547851562	523.1885986328125	-46.02862167358398	-496.2862243652344	793.2199096679688	-2.676908016204834	-707.5472412109375	28.35240745544434	-21.09234809875488	-589.7901611328125	386.9763793945312	-36.53608703613281	-634.9141235351562	41.34156036376953	-248.1325225830078	-703.1577758789062	33.81900024414062	-217.4160003662109	-621.955322265625	43.22514343261719	-127.4094467163086	-777.028076171875	30.45078086853027	3.314203977584839	
282	2.81	-619.1321411132812	1105.025512695312	131.6666412353516	-748.6234741210938	1108.526123046875	88.42212677001953	-687.5045776367188	1142.744506835938	116.4246139526367	-604.1052856445312	1343.644775390625	-87.57057189941406	-697.535400390625	1294.92529296875	149.7028656005859	-684.568115234375	1588.401245117188	118.3963012695312	-612.4426879882812	1478.272827148438	-51.17071533203125	-633.7483520507812	1397.144775390625	193.8147735595703	-782.02490234375	1574.035888671875	83.35484313964844	-812.5888061523438	1564.263916015625	-23.86217880249023	-889.90673828125	1434.881591796875	-33.8011474609375	-918.3119506835938	1218.31982421875	-57.60782241821289	-885.3224487304688	1201.575439453125	22.77710342407227	-863.17919921875	958.7550048828125	-145.9253692626953	-913.9312744140625	934.6171264648438	-77.09941101074219	-924.319580078125	1102.91064453125	-77.10749053955078	-842.98046875	766.4349975585938	-149.5050506591797	-908.240966796875	858.9903564453125	-105.5481185913086	-872.727294921875	868.9764404296875	-164.8771820068359	-497.4910278320312	1556.274169921875	135.1983337402344	-450.8876953125	1479.751586914062	175.5010986328125	-454.1753234863281	1185.921630859375	192.8054962158203	-543.6038818359375	1191.524169921875	159.1229095458984	-412.9770812988281	942.5724487304688	55.62368011474609	-420.9628601074219	924.8319702148438	136.235595703125	-433.8362731933594	1111.85595703125	177.6835479736328	-431.3450927734375	751.0134887695312	20.85677719116211	-400.3882446289062	833.9537353515625	29.69497680664062	-406.5410766601562	824.6688232421875	102.9198532104492	-603.231689453125	1753.61083984375	120.0513687133789	-582.943603515625	1822.572509765625	-90.02774047851562	-487.7227783203125	1808.419921875	-2.732591152191162	-706.794921875	1772.568969726562	37.94438171386719	-822.6967163085938	1027.188842773438	-35.44235229492188	-472.2027587890625	1004.906005859375	44.40783309936523	-493.6526794433594	1081.345825195312	-45.39204025268555	-746.3450317382812	1090.705810546875	-125.0327377319336	-807.7064208984375	523.8775634765625	-164.1329956054688	-831.252685546875	674.4658813476562	-118.8142395019531	-986.5735473632812	209.1892395019531	235.5634918212891	-924.2452392578125	385.5616149902344	43.28085327148438	-904.2415161132812	37.22175979614258	112.6563034057617	-879.2644653320312	94.98611450195312	165.8824462890625	-993.7510986328125	106.8344421386719	166.4290161132812	-936.3876953125	263.9054565429688	288.2157592773438	-568.8627319335938	522.594482421875	-47.34083557128906	-493.0677795410156	793.3765258789062	-6.952000141143799	-707.5272216796875	28.39951515197754	-21.07768249511719	-588.5640869140625	386.6590881347656	-37.20866775512695	-634.7891235351562	41.31536865234375	-248.1620635986328	-703.0431518554688	34.0203857421875	-217.4132537841797	-621.9719848632812	42.97746276855469	-127.2268524169922	-777.0484008789062	30.58282470703125	3.328497171401978	
